<svg width="49" height="52" viewBox="0 0 49 52" fill="none" xmlns="http://www.w3.org/2000/svg">
<path d="M3.5561 16.0724C1.44689 17.4543 1.44689 20.5457 3.5561 21.9276L24.0819 35.3756C26.4096 36.9006 29.5 35.2307 29.5 32.4479L29.5 5.55206C29.5 2.76929 26.4096 1.09941 24.0819 2.62444L3.5561 16.0724Z" fill="black" stroke="white"/>
<g style="mix-blend-mode:screen">
<path d="M44.7363 35.3936C46.8706 34.0508 46.9277 30.9599 44.8443 29.5393L24.5703 15.7148C22.2712 14.147 19.1504 15.7596 19.0991 18.5419L18.6026 45.4332C18.5512 48.2155 21.6103 49.9421 23.9657 48.4603L44.7363 35.3936Z" fill="black"/>
<path d="M44.7363 35.3936C46.8706 34.0508 46.9277 30.9599 44.8443 29.5393L24.5703 15.7148C22.2712 14.147 19.1504 15.7596 19.0991 18.5419L18.6026 45.4332C18.5512 48.2155 21.6103 49.9421 23.9657 48.4603L44.7363 35.3936Z" stroke="white"/>
</g>
</svg>
